<svg width="60" height="38" viewBox="0 0 60 38" fill="none" xmlns="http://www.w3.org/2000/svg">
<path fill-rule="evenodd" clip-rule="evenodd" d="M45.0322 19.6201C45.3259 19.7855 45.601 20.0043 45.8292 20.2463L55.9904 31.0148V21.2225C55.9904 20.1426 56.8927 19.2596 57.9952 19.2596C59.098 19.2596 60 20.1426 60 21.2225V36.0371C60 37.117 59.098 38 57.9952 38C57.2412 38 56.5813 37.5872 56.2391 36.9808L45.8823 26.0053V36.0371C45.8823 37.117 44.9803 38 43.8775 38C42.775 38 41.873 37.117 41.873 36.0371V21.2225C41.873 20.1426 42.775 19.2596 43.8775 19.2596C44.3066 19.2596 44.7052 19.3931 45.0322 19.6201ZM29.7187 6.04981L34.5633 14.2298C34.9847 14.9254 35.34 15.57 35.7644 16.2605C36.1679 16.9174 36.5616 17.7998 37.1107 18.227C38.6134 19.3968 41.0252 17.7493 40.1216 15.8009L31.663 1.4035C30.8369 -0.588533 28.4337 -0.319165 27.7793 1.33192C27.5204 1.98491 26.9692 2.75094 26.6046 3.39129C25.8203 4.7679 24.9758 6.09758 24.1773 7.50518C23.3917 8.89109 22.5527 10.2602 21.7496 11.6197C21.3301 12.3295 20.9564 12.9671 20.5497 13.6534C20.1339 14.3554 19.6941 15.0279 19.3231 15.7353C18.3318 17.6248 20.5322 19.3492 22.2652 18.2414C22.8604 17.8611 24.364 15.0679 24.8283 14.2583L29.0707 7.07017C29.161 6.91834 29.2826 6.69887 29.3704 6.54402L29.7187 6.04981ZM45.8952 14.7204C47.1749 14.5875 48.7894 14.7517 50.1244 14.6927C54.9668 14.4787 58.3653 9.6637 56.8635 5.16204C55.7189 1.73026 52.8337 0.0217884 49.0762 0.0229575C47.6546 0.0232764 46.2296 0.0130741 44.8084 0.0223737C43.3075 0.0325767 42.2916 0.18562 41.9495 1.47561C41.7699 2.15385 41.8755 12.4347 41.8755 14.0482C41.8755 15.1683 41.6832 17.1916 42.2348 17.9844C42.8843 18.9181 44.2654 19.1012 45.2334 18.3433C46.0788 17.6816 45.8977 16.0257 45.8952 14.7204ZM10.6904 3.95288L10.6898 16.5116C10.688 17.7081 11.2235 18.7964 12.6473 18.8259C13.9319 18.8526 14.695 17.9254 14.7006 16.6616L14.6991 3.96069C16.3046 3.90808 17.9952 4.02924 19.5824 3.95016C20.8482 3.8873 21.9495 2.60661 21.3331 1.22192C20.7309 -0.130671 19.3907 0.0229575 17.6777 0.0229575C16.3147 0.0229575 6.02267 -0.0543104 5.46066 0.0746623C3.24736 0.582741 3.46081 3.77491 5.72541 3.94623C7.19397 4.05719 9.16896 3.95676 10.6904 3.95288ZM45.8958 10.6837C46.9682 10.7776 50.0224 10.7977 50.8922 10.4541C53.6386 9.36877 53.8041 5.5243 50.9487 4.30669C50.0909 3.94113 46.9814 3.95468 45.8989 4.06107L45.8958 10.6837ZM24.4678 19.6201C24.7617 19.7855 25.0366 20.0043 25.265 20.2463L35.4263 31.0148V21.2225C35.4263 20.1426 36.3282 19.2596 37.4311 19.2596C38.5336 19.2596 39.4359 20.1426 39.4359 21.2225V36.0371C39.4359 37.117 38.5336 38 37.4311 38C36.6771 38 36.0172 37.5872 35.6747 36.9808L25.3182 26.0053V36.0371C25.3182 37.117 24.4159 38 23.3134 38C22.2109 38 21.3086 37.117 21.3086 36.0371V21.2225C21.3086 20.1426 22.2109 19.2596 23.3134 19.2596C23.7424 19.2596 24.141 19.3931 24.4678 19.6201ZM9.55346 19.2596C14.8299 19.2596 19.1073 23.4469 19.1073 28.6118C19.1073 33.777 14.8299 37.9642 9.55346 37.9642C4.27742 37.9642 0 33.777 0 28.6118C0 23.4469 4.27742 19.2596 9.55346 19.2596ZM9.55346 23.1847C12.6157 23.1847 15.0977 25.6145 15.0977 28.6118C15.0977 31.6094 12.6157 34.0392 9.55346 34.0392C6.49164 34.0392 4.00958 31.6094 4.00958 28.6118C4.00958 25.6145 6.49164 23.1847 9.55346 23.1847Z" fill="#00728D"/>
</svg>
